<?xml version="1.0" encoding="utf-8"?>
<!-- Generator: Adobe Illustrator 23.0.1, SVG Export Plug-In . SVG Version: 6.00 Build 0)  -->
<svg version="1.1" xmlns="http://www.w3.org/2000/svg" xmlns:xlink="http://www.w3.org/1999/xlink" x="0px" y="0px"
	 viewBox="0 0 300 300" style="enable-background:new 0 0 300 300;" xml:space="preserve">
<style type="text/css">
	.st0{display:none;}
	.st1{display:inline;fill:#FFFFFF;}
	.st2{fill:#FFFFFF;stroke:#FFFFFF;stroke-width:2;stroke-miterlimit:10;}
</style>
<g id="Layer_2" class="st0">
	<path id="path4253" class="st1" d="M117.2,10.9c-2.8,0-5.8,0.8-8.1,2.5c-2.2,1.6-3.8,3.9-4.5,6.5v0.3L72.2,153.1v0.3
		c-0.9,4.1,0.8,8.9,4,11.6c2.4,2,5.5,3.3,8.6,3.3c1,0,2-0.2,3.3-0.5h0.3l56.1-13.8L115,274.6c0,0.1,0,0.2,0,0.3
		c-0.7,2.9-0.3,6.5,1.3,9.1c1.6,2.7,4.4,4.7,7.3,5.5h0.3h0.5c1.2,0.2,1.9,0.5,3.3,0.5c4.7,0,9.6-2.8,11.8-7v-0.3l86.8-186.3
		c1.8-3.9,0.8-8.9-1.8-12.3c-0.2-0.3,0-0.7-0.3-1l-2,1.5l1.8-1.8c-2.5-2.5-5.8-4-9.3-4c-1.4,0-2.2,0.2-3.3,0.5l-53.6,13.3l23.7-64.2
		c0.1-0.2,0.2-0.3,0.3-0.5c0.7-1.5,1.3-2.9,1.3-4.8c0-3.3-1.5-6.6-3.8-8.8c-2.4-2.3-5.8-3.5-9.1-3.5L117.2,10.9L117.2,10.9z
		 M117.2,21.9h52.9c0.8,0,0.9,0.1,1.3,0.5c0.5,0.5,0.3,0.4,0.3,0.8c0-0.3,0-0.3-0.3,0.3V24l-0.3,0.3l-27.4,74.5l-3.8,9.8l10.3-2.5
		l63.9-15.6c0.7-0.2,1-0.3,0.5-0.3c0.5,0,0.8,0.1,1.3,0.5c0,0,0,0.2,0,0.3c0.3,0.2,0.6,0,0.3,0.8l-86.8,186
		c-0.1,0.2-0.2,0.1-0.3,0.3c-0.3,0.6-0.3,0.8-1.5,0.8c0.3,0-0.4,0-0.8,0c-0.4-0.1-0.4-0.2-0.5-0.3c-0.1-0.1-0.2-0.3-0.3-0.5
		c-0.2-0.3-0.4-0.1-0.3-0.5l31.7-130.1l2.3-9.1l-9.1,2.3l-65.2,16.4h-0.3c0.5-0.1,0.1,0-0.5,0c-0.8,0-0.8-0.2-1.3-0.5
		c-0.4-0.3-0.3-0.3-0.3-0.5v-0.3l32.2-132.4v-0.3c0.1-0.2,0.2-0.3,0.5-0.5C116.3,22.2,116.6,21.9,117.2,21.9L117.2,21.9z"/>
</g>
<g id="Layer_1">
	<path id="path22" class="st2" d="M149.2,213.4c-34.9,0-63.4-28.4-63.4-63.4c0-34.9,28.4-63.4,63.4-63.4c34.9,0,63.4,28.4,63.4,63.4
		C212.6,185,184.2,213.4,149.2,213.4 M149.2,77.7c-39.9,0-72.3,32.4-72.3,72.3s32.4,72.3,72.3,72.3c39.9,0,72.3-32.4,72.3-72.3
		S189.1,77.7,149.2,77.7"/>
	<path id="path26" class="st2" d="M149.2,56.5c2.5,0,4.5-2,4.5-4.5V16.3c0-2.5-2-4.5-4.5-4.5c-2.5,0-4.5,2-4.5,4.5V52
		C144.7,54.5,146.8,56.5,149.2,56.5"/>
	<path id="path30" class="st2" d="M149.2,242.5c-2.5,0-4.5,2-4.5,4.5v35.7c0,2.5,2,4.5,4.5,4.5c2.5,0,4.5-2,4.5-4.5V247
		C153.7,244.5,151.7,242.5,149.2,242.5"/>
	<path id="path34" class="st2" d="M198.2,70.4c0.7,0.5,1.5,0.7,2.4,0.7c1.5,0,3-0.7,3.8-2.1l18.8-30.4c1.3-2.1,0.6-4.9-1.5-6.2
		c-2.1-1.3-4.9-0.7-6.2,1.5l-18.8,30.4C195.4,66.4,196.1,69.1,198.2,70.4"/>
	<path id="path38" class="st2" d="M100.3,228.6c-2.1-1.3-4.9-0.7-6.2,1.5l-18.8,30.4c-1.3,2.1-0.6,4.9,1.5,6.2
		c0.7,0.5,1.5,0.7,2.4,0.7c1.5,0,3-0.7,3.8-2.1l18.8-30.4C103,232.6,102.4,229.9,100.3,228.6"/>
	<path id="path42" class="st2" d="M235.2,108.1c0.7,0,1.4-0.2,2.1-0.5l31.5-16.9c2.2-1.2,3-3.9,1.8-6.1c-1.2-2.2-3.9-3-6.1-1.8
		l-31.5,16.9c-2.2,1.2-3,3.9-1.8,6.1C232.1,107.2,233.6,108.1,235.2,108.1"/>
	<path id="path46" class="st2" d="M61.1,191.7l-31.6,16.9c-2.2,1.2-3,3.9-1.8,6.1c0.8,1.5,2.4,2.4,4,2.4c0.7,0,1.4-0.2,2.1-0.5
		l31.5-16.9c2.2-1.2,3-3.9,1.8-6.1C66,191.4,63.3,190.6,61.1,191.7"/>
	<path id="path50" class="st2" d="M282.5,144.8L282.5,144.8l-35.8,0.1c-2.5,0-4.5,2-4.5,4.5c0,2.5,2,4.5,4.5,4.5h0l35.8-0.1
		c2.5,0,4.5-2,4.5-4.5C287,146.8,285,144.8,282.5,144.8"/>
	<path id="path54" class="st2" d="M56.1,149.9c0-2.5-2-4.5-4.5-4.5h0l-35.8,0.1c-2.5,0-4.5,2-4.5,4.5c0,2.5,2,4.5,4.5,4.5h0
		l35.8-0.1C54.1,154.4,56.1,152.4,56.1,149.9"/>
	<path id="path58" class="st2" d="M268.4,209.5L237,192.3c-2.2-1.2-4.9-0.4-6.1,1.8c-1.2,2.2-0.4,4.9,1.8,6.1l31.4,17.2
		c0.7,0.4,1.4,0.6,2.1,0.6c1.6,0,3.1-0.8,3.9-2.3C271.4,213.4,270.6,210.7,268.4,209.5"/>
	<path id="path62" class="st2" d="M65.8,98.7L34.4,81.6c-2.2-1.2-4.9-0.4-6.1,1.8c-1.2,2.2-0.4,4.9,1.8,6.1l31.4,17.2
		c0.7,0.4,1.4,0.6,2.1,0.6c1.6,0,3.1-0.8,3.9-2.3C68.7,102.7,67.9,99.9,65.8,98.7"/>
	<path id="path66" class="st2" d="M204.8,229.8c-1.3-2.1-4.1-2.7-6.2-1.4c-2.1,1.3-2.7,4.1-1.4,6.2l19,30.3c0.8,1.4,2.3,2.1,3.8,2.1
		c0.8,0,1.6-0.2,2.4-0.7c2.1-1.3,2.7-4.1,1.4-6.2L204.8,229.8L204.8,229.8z"/>
	<path id="path70" class="st2" d="M93.7,69.1c0.8,1.4,2.3,2.1,3.8,2.1c0.8,0,1.6-0.2,2.4-0.7c2.1-1.3,2.7-4.1,1.4-6.2L82.3,34
		c-1.3-2.1-4.1-2.7-6.2-1.4c-2.1,1.3-2.7,4.1-1.4,6.2C74.7,38.8,93.7,69.1,93.7,69.1z"/>
</g>
</svg>
