<?xml version="1.0" encoding="utf-8"?>
<!-- Generator: Adobe Illustrator 23.0.1, SVG Export Plug-In . SVG Version: 6.00 Build 0)  -->
<svg version="1.1" xmlns="http://www.w3.org/2000/svg" xmlns:xlink="http://www.w3.org/1999/xlink" x="0px" y="0px"
	 viewBox="0 0 300 300" style="enable-background:new 0 0 300 300;" xml:space="preserve">
<style type="text/css">
	.st0{display:none;}
	.st1{display:inline;fill:#FFFFFF;}
	.st2{display:inline;fill:#FFFFFF;stroke:#FFFFFF;stroke-width:2;stroke-miterlimit:10;}
	.st3{fill:#FFFFFF;stroke:#FFFFFF;stroke-width:2;stroke-miterlimit:10;}
</style>
<g id="Layer_2" class="st0">
	<path id="path4253" class="st1" d="M117.2,10.9c-2.8,0-5.8,0.8-8.1,2.5c-2.2,1.6-3.8,3.9-4.5,6.5v0.3L72.2,153.1v0.3
		c-0.9,4.1,0.8,8.9,4,11.6c2.4,2,5.5,3.3,8.6,3.3c1,0,2-0.2,3.3-0.5h0.3l56.1-13.8L115,274.6c0,0.1,0,0.2,0,0.3
		c-0.7,2.9-0.3,6.5,1.3,9.1c1.6,2.7,4.4,4.7,7.3,5.5h0.3h0.5c1.2,0.2,1.9,0.5,3.3,0.5c4.7,0,9.6-2.8,11.8-7v-0.3l86.8-186.3
		c1.8-3.9,0.8-8.9-1.8-12.3c-0.2-0.3,0-0.7-0.3-1l-2,1.5l1.8-1.8c-2.5-2.5-5.8-4-9.3-4c-1.4,0-2.2,0.2-3.3,0.5l-53.6,13.3l23.7-64.2
		c0.1-0.2,0.2-0.3,0.3-0.5c0.7-1.5,1.3-2.9,1.3-4.8c0-3.3-1.5-6.6-3.8-8.8c-2.4-2.3-5.8-3.5-9.1-3.5L117.2,10.9L117.2,10.9z
		 M117.2,21.9h52.9c0.8,0,0.9,0.1,1.3,0.5c0.5,0.5,0.3,0.4,0.3,0.8c0-0.3,0-0.3-0.3,0.3V24l-0.3,0.3l-27.4,74.5l-3.8,9.8l10.3-2.5
		l63.9-15.6c0.7-0.2,1-0.3,0.5-0.3c0.5,0,0.8,0.1,1.3,0.5c0,0,0,0.2,0,0.3c0.3,0.2,0.6,0,0.3,0.8l-86.8,186
		c-0.1,0.2-0.2,0.1-0.3,0.3c-0.3,0.6-0.3,0.8-1.5,0.8c0.3,0-0.4,0-0.8,0c-0.4-0.1-0.4-0.2-0.5-0.3c-0.1-0.1-0.2-0.3-0.3-0.5
		c-0.2-0.3-0.4-0.1-0.3-0.5l31.7-130.1l2.3-9.1l-9.1,2.3l-65.2,16.4h-0.3c0.5-0.1,0.1,0-0.5,0c-0.8,0-0.8-0.2-1.3-0.5
		c-0.4-0.3-0.3-0.3-0.3-0.5v-0.3l32.2-132.4v-0.3c0.1-0.2,0.2-0.3,0.5-0.5C116.3,22.2,116.6,21.9,117.2,21.9L117.2,21.9z"/>
</g>
<g id="Layer_1" class="st0">
	<path id="path22" class="st2" d="M149.2,213.4c-34.9,0-63.4-28.4-63.4-63.4c0-34.9,28.4-63.4,63.4-63.4c34.9,0,63.4,28.4,63.4,63.4
		C212.6,185,184.2,213.4,149.2,213.4 M149.2,77.7c-39.9,0-72.3,32.4-72.3,72.3s32.4,72.3,72.3,72.3c39.9,0,72.3-32.4,72.3-72.3
		S189.1,77.7,149.2,77.7"/>
	<path id="path26" class="st2" d="M149.2,56.5c2.5,0,4.5-2,4.5-4.5V16.3c0-2.5-2-4.5-4.5-4.5c-2.5,0-4.5,2-4.5,4.5V52
		C144.7,54.5,146.8,56.5,149.2,56.5"/>
	<path id="path30" class="st2" d="M149.2,242.5c-2.5,0-4.5,2-4.5,4.5v35.7c0,2.5,2,4.5,4.5,4.5c2.5,0,4.5-2,4.5-4.5V247
		C153.7,244.5,151.7,242.5,149.2,242.5"/>
	<path id="path34" class="st2" d="M198.2,70.4c0.7,0.5,1.5,0.7,2.4,0.7c1.5,0,3-0.7,3.8-2.1l18.8-30.4c1.3-2.1,0.6-4.9-1.5-6.2
		c-2.1-1.3-4.9-0.7-6.2,1.5l-18.8,30.4C195.4,66.4,196.1,69.1,198.2,70.4"/>
	<path id="path38" class="st2" d="M100.3,228.6c-2.1-1.3-4.9-0.7-6.2,1.5l-18.8,30.4c-1.3,2.1-0.6,4.9,1.5,6.2
		c0.7,0.5,1.5,0.7,2.4,0.7c1.5,0,3-0.7,3.8-2.1l18.8-30.4C103,232.6,102.4,229.9,100.3,228.6"/>
	<path id="path42" class="st2" d="M235.2,108.1c0.7,0,1.4-0.2,2.1-0.5l31.5-16.9c2.2-1.2,3-3.9,1.8-6.1c-1.2-2.2-3.9-3-6.1-1.8
		l-31.5,16.9c-2.2,1.2-3,3.9-1.8,6.1C232.1,107.2,233.6,108.1,235.2,108.1"/>
	<path id="path46" class="st2" d="M61.1,191.7l-31.6,16.9c-2.2,1.2-3,3.9-1.8,6.1c0.8,1.5,2.4,2.4,4,2.4c0.7,0,1.4-0.2,2.1-0.5
		l31.5-16.9c2.2-1.2,3-3.9,1.8-6.1C66,191.4,63.3,190.6,61.1,191.7"/>
	<path id="path50" class="st2" d="M282.5,144.8L282.5,144.8l-35.8,0.1c-2.5,0-4.5,2-4.5,4.5c0,2.5,2,4.5,4.5,4.5h0l35.8-0.1
		c2.5,0,4.5-2,4.5-4.5C287,146.8,285,144.8,282.5,144.8"/>
	<path id="path54" class="st2" d="M56.1,149.9c0-2.5-2-4.5-4.5-4.5h0l-35.8,0.1c-2.5,0-4.5,2-4.5,4.5c0,2.5,2,4.5,4.5,4.5h0
		l35.8-0.1C54.1,154.4,56.1,152.4,56.1,149.9"/>
	<path id="path58" class="st2" d="M268.4,209.5L237,192.3c-2.2-1.2-4.9-0.4-6.1,1.8c-1.2,2.2-0.4,4.9,1.8,6.1l31.4,17.2
		c0.7,0.4,1.4,0.6,2.1,0.6c1.6,0,3.1-0.8,3.9-2.3C271.4,213.4,270.6,210.7,268.4,209.5"/>
	<path id="path62" class="st2" d="M65.8,98.7L34.4,81.6c-2.2-1.2-4.9-0.4-6.1,1.8c-1.2,2.2-0.4,4.9,1.8,6.1l31.4,17.2
		c0.7,0.4,1.4,0.6,2.1,0.6c1.6,0,3.1-0.8,3.9-2.3C68.7,102.7,67.9,99.9,65.8,98.7"/>
	<path id="path66" class="st2" d="M204.8,229.8c-1.3-2.1-4.1-2.7-6.2-1.4c-2.1,1.3-2.7,4.1-1.4,6.2l19,30.3c0.8,1.4,2.3,2.1,3.8,2.1
		c0.8,0,1.6-0.2,2.4-0.7c2.1-1.3,2.7-4.1,1.4-6.2L204.8,229.8L204.8,229.8z"/>
	<path id="path70" class="st2" d="M93.7,69.1c0.8,1.4,2.3,2.1,3.8,2.1c0.8,0,1.6-0.2,2.4-0.7c2.1-1.3,2.7-4.1,1.4-6.2L82.3,34
		c-1.3-2.1-4.1-2.7-6.2-1.4c-2.1,1.3-2.7,4.1-1.4,6.2C74.7,38.8,93.7,69.1,93.7,69.1z"/>
</g>
<g id="Layer_3" class="st0">
	<path id="path74" class="st2" d="M129.1,243.8l112.7,0c0.7,0,1.5,0,2.3,0.1v-0.1c18.4,0,33.4-15,33.4-33.4s-15-33.4-33.4-33.4
		c-2.6,0-5.3,0.3-8.1,1c-0.9,0.2-1.8,0.1-2.6-0.5c-0.8-0.5-1.3-1.3-1.4-2.2c-3.7-23.8-23.9-41-47.9-41c-26.8,0-48.6,21.8-48.6,48.6
		c0,1.3,0.1,2.6,0.2,3.9c0.1,1-0.3,1.9-1,2.6c-0.7,0.7-1.7,1-2.6,0.9c-1-0.1-2-0.2-3-0.2c-14.8,0-26.8,12-26.8,26.8
		C102.3,231.8,114.3,243.8,129.1,243.8 M128.9,183.7c0-0.2,0-0.5,0-0.7c0-30.4,24.7-55.1,55.1-55.1c26.1,0,48.2,18,53.8,43.2
		c2.1-0.3,4.2-0.5,6.2-0.5c22,0,39.9,17.9,39.9,39.9c0,22-17.9,39.9-39.9,39.9h0c-0.5,0-13.1,0-29.8,0l-85.2,0
		c-18.4,0-33.3-15-33.3-33.4C95.8,198.7,110.6,183.8,128.9,183.7"/>
	<path id="path78" class="st2" d="M63.8,150.6c0-29.2,23.8-53,53-53c17.9,0,33.3,7.6,43.2,22.6c1,1.5,0.6,3.6-0.9,4.5
		c-1.5,1-3.5,0.6-4.5-0.9c-8.6-13.1-22-19.6-37.7-19.6c-25.6,0-46.4,20.8-46.4,46.4c0,15.8,8,30.4,21.3,39c1.5,1,2,3,1,4.5
		c-0.6,1-1.7,1.5-2.7,1.5c-0.6,0-1.2-0.2-1.8-0.5C72.9,185.3,63.8,168.6,63.8,150.6"/>
	<path id="path82" class="st2" d="M116.1,81.4c-1.8,0-3.3-1.5-3.3-3.3V51.9c0-1.8,1.5-3.3,3.3-3.3c1.8,0,3.3,1.5,3.3,3.3v26.2
		C119.4,79.9,117.9,81.4,116.1,81.4"/>
	<path id="path86" class="st2" d="M80.2,91.6c-0.5,0.3-1.1,0.5-1.7,0.5c-1.1,0-2.2-0.6-2.8-1.6L61.9,68.3c-0.9-1.5-0.5-3.6,1.1-4.5
		c1.5-0.9,3.6-0.5,4.5,1.1l13.8,22.3C82.3,88.6,81.8,90.6,80.2,91.6"/>
	<path id="path90" class="st2" d="M53.1,119.2c-0.5,0-1-0.1-1.5-0.4l-23.1-12.4c-1.6-0.9-2.2-2.8-1.3-4.4c0.9-1.6,2.8-2.2,4.4-1.3
		L54.7,113c1.6,0.9,2.2,2.8,1.3,4.4C55.4,118.5,54.3,119.2,53.1,119.2"/>
	<path id="path94" class="st2" d="M18.5,146L18.5,146l26.2,0.1c1.8,0,3.3,1.5,3.3,3.3c0,1.8-1.5,3.3-3.3,3.3h0l-26.2-0.1
		c-1.8,0-3.3-1.5-3.3-3.3C15.2,147.5,16.7,146,18.5,146"/>
	<path id="path98" class="st2" d="M28.8,193.4l23-12.6c1.6-0.9,3.6-0.3,4.4,1.3c0.9,1.6,0.3,3.6-1.3,4.4l-23,12.6
		c-0.5,0.3-1,0.4-1.6,0.4c-1.1,0-2.3-0.6-2.9-1.7C26.6,196.3,27.2,194.3,28.8,193.4"/>
	<path id="path102" class="st2" d="M203.4,105.5l-23,12.6c-0.5,0.3-1,0.4-1.6,0.4c-1.2,0-2.3-0.6-2.9-1.7c-0.9-1.6-0.3-3.6,1.3-4.4
		l23-12.6c1.6-0.9,3.6-0.3,4.4,1.3C205.5,102.6,205,104.6,203.4,105.5"/>
	<path id="path106" class="st2" d="M75.4,208.3c1-1.5,3-2,4.5-1c1.5,1,2,3,1,4.5L67.1,234c-0.6,1-1.7,1.5-2.8,1.5
		c-0.6,0-1.2-0.2-1.7-0.5c-1.5-1-2-3-1-4.5L75.4,208.3L75.4,208.3z"/>
	<path id="path110" class="st2" d="M156.8,90.6c-0.6,1-1.7,1.5-2.8,1.5c-0.6,0-1.2-0.2-1.7-0.5c-1.5-1-2-3-1-4.5l13.9-22.2
		c1-1.5,3-2,4.5-1c1.5,1,2,3,1,4.5L156.8,90.6L156.8,90.6z"/>
</g>
<g id="Layer_4" class="st0">
	<path id="path274" class="st2" d="M107.6,225.6h129.1c0.9,0,1.8,0,2.6,0.1v-0.1c21.1,0,38.2-17.2,38.2-38.2s-17.2-38.2-38.2-38.2
		c-3,0-6.1,0.4-9.2,1.2c-1,0.3-2.1,0.1-3-0.5c-0.9-0.6-1.5-1.5-1.6-2.5c-4.3-27.2-27.4-47-54.9-47c-30.7,0-55.6,25-55.6,55.6
		c0,1.5,0.1,3,0.2,4.5c0.1,1.1-0.3,2.2-1.1,3c-0.8,0.8-1.9,1.2-3,1c-1.1-0.1-2.2-0.2-3.4-0.2c-16.9,0-30.7,13.8-30.7,30.7
		S90.6,225.6,107.6,225.6 M107.4,156.7c0-0.3,0-0.5,0-0.8c0-34.8,28.3-63.2,63.2-63.2c29.9,0,55.3,20.6,61.6,49.4
		c2.4-0.4,4.8-0.6,7.1-0.6c25.2,0,45.8,20.5,45.8,45.8c0,25.2-20.5,45.7-45.8,45.7h-34.1h-97.5c-21.1,0-38.2-17.1-38.2-38.2
		C69.4,173.9,86.4,156.8,107.4,156.7"/>
	<path id="path278" class="st2" d="M61.6,116.3c2.3,0,4.7,0.2,7.1,0.6c6.3-28.9,31.7-49.5,61.6-49.5c13,0,25.6,3.9,36.2,11.4
		c1.7,1.2,2.1,3.5,0.9,5.2c-1.2,1.7-3.5,2.1-5.2,0.9c-9.4-6.6-20.4-10-31.9-10c-27.5,0-50.6,19.8-54.9,47c-0.2,1-0.8,2-1.6,2.5
		c-0.9,0.6-2,0.8-3,0.5c-3.1-0.8-6.2-1.2-9.2-1.2c-21.1,0-38.2,17.2-38.2,38.2c0,19.7,14.7,36,34.3,38c2.1,0.2,3.6,2.1,3.4,4.1
		c-0.2,1.9-1.8,3.4-3.7,3.4c-0.1,0-0.3,0-0.4,0c-23.4-2.4-41-22-41-45.5C15.8,136.8,36.3,116.3,61.6,116.3"/>
</g>
<g id="Layer_5" class="st0">
	<path id="path218" class="st2" d="M106.4,189.3h130.7c0.9,0,1.8,0,2.6,0.1v-0.1c21.3,0,38.7-17.4,38.7-38.7
		c0-21.3-17.4-38.7-38.7-38.7c-3,0-6.2,0.4-9.3,1.2c-1,0.3-2.1,0.1-3-0.5c-0.9-0.6-1.5-1.5-1.7-2.6c-4.3-27.5-27.7-47.5-55.6-47.5
		c-31.1,0-56.3,25.3-56.3,56.3c0,1.5,0.1,3,0.2,4.5c0.1,1.1-0.3,2.2-1.1,3c-0.8,0.8-1.9,1.2-3.1,1.1c-1.1-0.1-2.3-0.2-3.4-0.2
		c-17.1,0-31.1,13.9-31.1,31.1C75.3,175.3,89.3,189.3,106.4,189.3 M106.2,119.6c0-0.3,0-0.5,0-0.8c0-35.3,28.7-63.9,63.9-63.9
		c30.3,0,55.9,20.8,62.3,50.1c2.4-0.4,4.9-0.6,7.2-0.6c25.5,0,46.3,20.8,46.3,46.3c0,25.5-20.8,46.3-46.3,46.3h-34.5h-98.7
		c-21.3,0-38.7-17.3-38.7-38.7C67.7,137,85,119.7,106.2,119.6"/>
	<path id="path222" class="st2" d="M59.9,78.7c2.4,0,4.8,0.2,7.2,0.6c6.4-29.2,32-50.1,62.3-50.1c13.2,0,25.9,4,36.6,11.5
		c1.7,1.2,2.1,3.6,0.9,5.3c-1.2,1.7-3.6,2.1-5.3,0.9c-9.5-6.7-20.6-10.2-32.3-10.2c-27.9,0-51.2,20-55.6,47.5
		c-0.2,1.1-0.8,2-1.7,2.6c-0.9,0.6-2,0.8-3,0.5c-3.2-0.8-6.3-1.2-9.3-1.2c-21.3,0-38.7,17.4-38.7,38.7c0,19.9,14.9,36.5,34.7,38.5
		c2.1,0.2,3.6,2.1,3.4,4.2c-0.2,2-1.9,3.4-3.8,3.4c-0.1,0-0.3,0-0.4,0c-23.7-2.4-41.5-22.2-41.5-46.1C13.6,99.4,34.3,78.7,59.9,78.7
		"/>
	<path id="path298" class="st2" d="M125.1,214.1c-1.8-0.9-4-0.2-4.9,1.6l-24.9,49.7c-0.9,1.8-0.2,4,1.7,4.9c0.5,0.3,1.1,0.4,1.6,0.4
		c1.4,0,2.7-0.7,3.3-2l24.9-49.7C127.6,217.3,126.9,215,125.1,214.1"/>
	<path id="path302" class="st2" d="M166.5,214.1c-1.8-0.9-4-0.2-4.9,1.6l-24.9,49.7c-0.9,1.8-0.2,4,1.6,4.9c0.5,0.3,1.1,0.4,1.6,0.4
		c1.4,0,2.7-0.7,3.3-2l24.9-49.7C169.1,217.3,168.4,215,166.5,214.1"/>
	<path id="path306" class="st2" d="M208,214.1c-1.8-0.9-4-0.2-4.9,1.6l-24.9,49.7c-0.9,1.8-0.2,4,1.7,4.9c0.5,0.3,1.1,0.4,1.6,0.4
		c1.4,0,2.7-0.7,3.3-2l24.9-49.7C210.6,217.3,209.8,215,208,214.1"/>
</g>
<g id="Layer_6">
	<path id="path3198" class="st3" d="M106.9,192.6h130.3c0.9,0,1.8,0,2.6,0.1v-0.1c21.3,0,38.6-17.3,38.6-38.6
		c0-21.3-17.3-38.6-38.6-38.6c-3,0-6.1,0.4-9.3,1.2c-1,0.3-2.1,0.1-3-0.5c-0.9-0.6-1.5-1.5-1.6-2.6C221.5,86,198.2,66,170.4,66
		c-31,0-56.2,25.2-56.2,56.2c0,1.5,0.1,3,0.2,4.5c0.1,1.1-0.3,2.2-1.1,3c-0.8,0.8-1.9,1.2-3.1,1.1c-1.1-0.1-2.3-0.2-3.4-0.2
		c-17.1,0-31,13.9-31,31S89.8,192.6,106.9,192.6 M106.6,123v-0.8c0-35.2,28.6-63.8,63.8-63.8c30.2,0,55.8,20.8,62.2,49.9
		c2.4-0.4,4.8-0.6,7.2-0.6c25.5,0,46.2,20.7,46.2,46.2s-20.7,46.2-46.2,46.2h-34.5h-98.5c-21.3,0-38.6-17.3-38.6-38.6
		C68.3,140.4,85.5,123.1,106.6,123"/>
	<path id="path3200" class="st3" d="M60.4,82.2c2.4,0,4.8,0.2,7.2,0.6c6.4-29.2,32-49.9,62.2-49.9c13.2,0,25.8,4,36.5,11.5
		c1.7,1.2,2.1,3.6,0.9,5.3c-1.2,1.7-3.6,2.1-5.3,0.9c-9.5-6.6-20.6-10.1-32.2-10.1c-27.8,0-51.1,19.9-55.4,47.4
		c-0.2,1.1-0.8,2-1.6,2.6c-0.9,0.6-2,0.8-3,0.5c-3.2-0.8-6.3-1.2-9.3-1.2c-21.3,0-38.6,17.3-38.6,38.6c0,19.9,14.9,36.4,34.6,38.4
		c2.1,0.2,3.6,2.1,3.4,4.2c-0.2,2-1.9,3.4-3.8,3.4c-0.1,0-0.3,0-0.4,0c-23.6-2.4-41.4-22.2-41.4-45.9C14.2,103,34.9,82.2,60.4,82.2"
		/>
	<path id="path3202" class="st3" d="M120.2,262.2c0,3.2,1.9,5.8,4.2,5.8h4.3c2.3,0,4.2-2.6,4.2-5.8v-29.8c0-3.2-1.9-5.8-4.2-5.8
		h-4.3c-2.3,0-4.2,2.6-4.2,5.8V262.2z"/>
	<path id="path3204" class="st3" d="M173.2,262.2c0,3.2,1.9,5.8,4.2,5.8h4.3c2.3,0,4.2-2.6,4.2-5.8v-29.8c0-3.2-1.9-5.8-4.2-5.8
		h-4.3c-2.3,0-4.2,2.6-4.2,5.8V262.2z"/>
	<path id="path3206" class="st3" d="M226.1,262.2c0,3.2,1.9,5.8,4.2,5.8h4.3c2.3,0,4.2-2.6,4.2-5.8v-29.8c0-3.2-1.9-5.8-4.2-5.8
		h-4.3c-2.3,0-4.2,2.6-4.2,5.8V262.2z"/>
</g>
</svg>
