<?xml version="1.0" encoding="utf-8"?>
<!-- Generator: Adobe Illustrator 23.0.1, SVG Export Plug-In . SVG Version: 6.00 Build 0)  -->
<svg version="1.1" id="Layer_1" xmlns="http://www.w3.org/2000/svg" xmlns:xlink="http://www.w3.org/1999/xlink" x="0px" y="0px"
	 viewBox="0 0 300 300" style="enable-background:new 0 0 300 300;" xml:space="preserve">
<style type="text/css">
	.st0{fill:#FFFFFF;}
</style>
<path id="path4253" class="st0" d="M117.2,10.9c-2.8,0-5.8,0.8-8.1,2.5c-2.2,1.6-3.8,3.9-4.5,6.5v0.3L72.2,153.1v0.3
	c-0.9,4.1,0.8,8.9,4,11.6c2.4,2,5.5,3.3,8.6,3.3c1,0,2-0.2,3.3-0.5h0.3l56.1-13.8L115,274.6c0,0.1,0,0.2,0,0.3
	c-0.7,2.9-0.3,6.5,1.3,9.1c1.6,2.7,4.4,4.7,7.3,5.5h0.3h0.5c1.2,0.2,1.9,0.5,3.3,0.5c4.7,0,9.6-2.8,11.8-7v-0.3l86.8-186.3
	c1.8-3.9,0.8-8.9-1.8-12.3c-0.2-0.3,0-0.7-0.3-1l-2,1.5l1.8-1.8c-2.5-2.5-5.8-4-9.3-4c-1.4,0-2.2,0.2-3.3,0.5l-53.6,13.3l23.7-64.2
	c0.1-0.2,0.2-0.3,0.3-0.5c0.7-1.5,1.3-2.9,1.3-4.8c0-3.3-1.5-6.6-3.8-8.8c-2.4-2.3-5.8-3.5-9.1-3.5L117.2,10.9L117.2,10.9z
	 M117.2,21.9h52.9c0.8,0,0.9,0.1,1.3,0.5c0.5,0.5,0.3,0.4,0.3,0.8c0-0.3,0-0.3-0.3,0.3V24l-0.3,0.3l-27.4,74.5l-3.8,9.8l10.3-2.5
	l63.9-15.6c0.7-0.2,1-0.3,0.5-0.3c0.5,0,0.8,0.1,1.3,0.5c0,0,0,0.2,0,0.3c0.3,0.2,0.6,0,0.3,0.8l-86.8,186c-0.1,0.2-0.2,0.1-0.3,0.3
	c-0.3,0.6-0.3,0.8-1.5,0.8c0.3,0-0.4,0-0.8,0c-0.4-0.1-0.4-0.2-0.5-0.3c-0.1-0.1-0.2-0.3-0.3-0.5c-0.2-0.3-0.4-0.1-0.3-0.5
	l31.7-130.1l2.3-9.1l-9.1,2.3l-65.2,16.4h-0.3c0.5-0.1,0.1,0-0.5,0c-0.8,0-0.8-0.2-1.3-0.5c-0.4-0.3-0.3-0.3-0.3-0.5v-0.3
	l32.2-132.4v-0.3c0.1-0.2,0.2-0.3,0.5-0.5C116.3,22.2,116.6,21.9,117.2,21.9L117.2,21.9z"/>
</svg>
